<svg width="25" height="24" viewBox="0 0 25 24" fill="none" xmlns="http://www.w3.org/2000/svg">
<path d="M11.7086 18.1512L19.1046 10.7552C17.8603 10.2357 16.7302 9.47662 15.7786 8.5212C14.8228 7.56941 14.0634 6.43897 13.5436 5.1942L6.14764 12.5902C5.57064 13.1672 5.28164 13.4562 5.03364 13.7742C4.74075 14.1495 4.4896 14.5555 4.28464 14.9852C4.11164 15.3492 3.98264 15.7372 3.72464 16.5112L2.36264 20.5942C2.29996 20.7811 2.29066 20.9819 2.33579 21.1738C2.38092 21.3658 2.47869 21.5413 2.61811 21.6807C2.75754 21.8202 2.93309 21.9179 3.12503 21.9631C3.31697 22.0082 3.5177 21.9989 3.70464 21.9362L7.78764 20.5742C8.56264 20.3162 8.94964 20.1872 9.31364 20.0142C9.74364 19.8092 10.1496 19.5582 10.5246 19.2652C10.8426 19.0172 11.1316 18.7282 11.7086 18.1512ZM21.1566 8.7032C21.8941 7.96576 22.3084 6.96559 22.3084 5.9227C22.3084 4.87981 21.8941 3.87963 21.1566 3.1422C20.4192 2.40476 19.419 1.99048 18.3761 1.99048C17.3333 1.99048 16.3331 2.40476 15.5956 3.1422L14.7086 4.0292L14.7466 4.1402C15.1838 5.39092 15.8991 6.5261 16.8386 7.4602C17.8007 8.4279 18.9756 9.15731 20.2696 9.5902L21.1566 8.7032Z" fill="#212B36"/>
</svg>
